<svg xmlns="http://www.w3.org/2000/svg" xmlns:xlink="http://www.w3.org/1999/xlink" width="1600" zoomAndPan="magnify" viewBox="0 0 1200 671.999997" height="896" preserveAspectRatio="xMidYMid meet" version="1.0"><metadata><ContainsAiGeneratedContent>Yes</ContainsAiGeneratedContent></metadata><defs><clipPath id="a20e53caf4"><path d="M 1044 217 L 1133 217 L 1133 483.914062 L 1044 483.914062 Z M 1044 217 " clip-rule="nonzero"/></clipPath><clipPath id="9f7788c68e"><path d="M 920.785156 319 L 985 319 L 985 383 L 920.785156 383 Z M 920.785156 319 " clip-rule="nonzero"/></clipPath></defs><rect x="-120" width="1440" fill="#ffffff" y="-67.2" height="806.399996" fill-opacity="1"/><rect x="-120" width="1440" fill="#ffffff" y="-67.2" height="806.399996" fill-opacity="1"/><g clip-path="url(#a20e53caf4)"><path fill="#191919" d="M 1080.070312 223.570312 C 1071.933594 215.425781 1058.71875 215.425781 1050.582031 223.570312 C 1042.4375 231.714844 1042.4375 244.910156 1050.582031 253.058594 C 1076.683594 279.160156 1091.058594 313.929688 1091.058594 350.949219 C 1091.058594 387.554688 1076.265625 423.105469 1050.472656 448.488281 C 1042.265625 456.574219 1042.15625 469.769531 1050.230469 477.976562 C 1054.316406 482.128906 1059.707031 484.207031 1065.097656 484.207031 C 1070.375 484.207031 1075.660156 482.210938 1079.722656 478.21875 C 1113.429688 445.046875 1132.761719 398.660156 1132.761719 350.949219 C 1132.761719 302.78125 1114.050781 257.546875 1080.070312 223.570312 Z M 1080.070312 223.570312 " fill-opacity="1" fill-rule="nonzero"/></g><path fill="#191919" d="M 1027.582031 275.945312 C 1019.441406 267.800781 1006.238281 267.808594 998.097656 275.933594 C 989.953125 284.078125 989.949219 297.285156 998.085938 305.429688 C 1010.289062 317.636719 1017.015625 333.804688 1017.015625 350.949219 C 1017.015625 368.097656 1010.296875 384.253906 998.09375 396.460938 C 989.949219 404.605469 989.949219 417.800781 998.09375 425.949219 C 1002.160156 430.019531 1007.5 432.054688 1012.835938 432.054688 C 1018.171875 432.054688 1023.511719 430.019531 1027.578125 425.949219 C 1047.660156 405.871094 1058.71875 379.234375 1058.71875 350.949219 C 1058.71875 322.675781 1047.660156 296.042969 1027.582031 275.945312 Z M 1027.582031 275.945312 " fill-opacity="1" fill-rule="nonzero"/><g clip-path="url(#9f7788c68e)"><path fill="#191919" d="M 952.628906 319.082031 C 935.089844 319.082031 920.820312 333.347656 920.820312 350.890625 C 920.820312 368.433594 935.089844 382.695312 952.628906 382.695312 C 970.164062 382.695312 984.433594 368.433594 984.433594 350.890625 C 984.433594 333.347656 970.164062 319.082031 952.628906 319.082031 Z M 952.628906 319.082031 " fill-opacity="1" fill-rule="nonzero"/></g></svg>