<svg xmlns="http://www.w3.org/2000/svg" xmlns:xlink="http://www.w3.org/1999/xlink" width="1600" zoomAndPan="magnify" viewBox="0 0 1200 671.999997" height="896" preserveAspectRatio="xMidYMid meet" version="1.0"><metadata><ContainsAiGeneratedContent>Yes</ContainsAiGeneratedContent></metadata><defs><clipPath id="f4d72cfad2"><path d="M 692.144531 482 L 790 482 L 790 602 L 692.144531 602 Z M 692.144531 482 " clip-rule="nonzero"/></clipPath><clipPath id="3711607089"><path d="M 904 479 L 1014 479 L 1014 604.5 L 904 604.5 Z M 904 479 " clip-rule="nonzero"/></clipPath></defs><rect x="-120" width="1440" fill="#ffffff" y="-67.2" height="806.399996" fill-opacity="1"/><rect x="-120" width="1440" fill="#ffffff" y="-67.2" height="806.399996" fill-opacity="1"/><path fill="#191919" d="M 975.125 434.910156 C 975.125 437.0625 975.96875 439.074219 977.488281 440.597656 C 979.011719 442.121094 981.027344 442.949219 983.175781 442.949219 C 994.527344 442.949219 1005.226562 447.378906 1013.253906 455.421875 C 1021.292969 463.460938 1025.722656 474.148438 1025.738281 485.511719 C 1025.738281 487.648438 1026.578125 489.675781 1028.089844 491.199219 C 1029.613281 492.71875 1031.625 493.550781 1033.777344 493.5625 C 1035.992188 493.5625 1037.992188 492.644531 1039.453125 491.199219 C 1040.914062 489.738281 1041.820312 487.738281 1041.832031 485.523438 C 1041.832031 469.878906 1035.726562 455.15625 1024.628906 444.070312 C 1013.542969 432.984375 998.820312 426.882812 983.175781 426.867188 C 978.875 426.867188 975.125 430.605469 975.125 434.910156 Z M 975.125 434.910156 " fill-opacity="1" fill-rule="nonzero"/><path fill="#191919" d="M 983.164062 381.730469 C 978.875 381.742188 975.125 385.480469 975.125 389.785156 C 975.125 391.9375 975.953125 393.949219 977.476562 395.472656 C 978.988281 396.980469 981.011719 397.824219 983.164062 397.824219 C 1031.511719 397.824219 1070.851562 437.164062 1070.863281 485.523438 C 1070.863281 487.675781 1071.707031 489.699219 1073.214844 491.210938 C 1074.726562 492.71875 1076.75 493.5625 1078.917969 493.5625 C 1081.132812 493.5625 1083.132812 492.65625 1084.589844 491.199219 C 1086.050781 489.738281 1086.945312 487.722656 1086.957031 485.511719 C 1086.957031 457.835938 1076.148438 431.789062 1056.515625 412.15625 C 1036.886719 392.539062 1010.851562 381.730469 983.164062 381.730469 Z M 983.164062 381.730469 " fill-opacity="1" fill-rule="nonzero"/><path fill="#191919" d="M 983.164062 336 C 978.859375 336.011719 975.125 339.75 975.109375 344.054688 C 975.109375 346.207031 975.953125 348.21875 977.476562 349.742188 C 979 351.265625 981.011719 352.09375 983.164062 352.109375 C 1018.753906 352.109375 1052.238281 366 1077.46875 391.21875 C 1102.699219 416.449219 1116.59375 449.933594 1116.59375 485.523438 C 1116.605469 489.953125 1120.214844 493.5625 1124.644531 493.574219 C 1126.859375 493.574219 1128.875 492.671875 1130.335938 491.210938 C 1131.792969 489.75 1132.6875 487.738281 1132.699219 485.523438 C 1132.6875 403.074219 1065.601562 336 983.164062 336 Z M 983.164062 336 " fill-opacity="1" fill-rule="nonzero"/><g clip-path="url(#f4d72cfad2)"><path fill="#191919" d="M 699.484375 601.746094 C 694.664062 601.746094 692.25 599.34375 692.25 594.511719 L 692.25 490.003906 C 692.25 485.171875 694.652344 482.765625 699.484375 482.765625 L 713.316406 482.765625 C 717.015625 482.765625 720.074219 484.378906 722.160156 487.421875 L 759.308594 541.292969 L 759.308594 490.003906 C 759.308594 485.171875 761.710938 482.765625 766.546875 482.765625 L 782.464844 482.765625 C 787.285156 482.765625 789.699219 485.171875 789.699219 490.003906 L 789.699219 594.511719 C 789.699219 599.34375 787.296875 601.746094 782.464844 601.746094 L 768.632812 601.746094 C 764.933594 601.746094 761.875 600.136719 759.789062 597.089844 L 722.640625 542.742188 L 722.640625 594.511719 C 722.640625 599.34375 720.222656 601.746094 715.402344 601.746094 Z M 699.484375 601.746094 " fill-opacity="1" fill-rule="nonzero"/></g><path fill="#191919" d="M 847.648438 556.230469 L 847.648438 594.5 C 847.648438 599.332031 845.234375 601.734375 840.414062 601.734375 L 824.492188 601.734375 C 819.675781 601.734375 817.257812 599.332031 817.257812 594.5 L 817.257812 489.988281 C 817.257812 485.15625 819.675781 482.753906 824.492188 482.753906 L 891.226562 482.753906 C 896.046875 482.753906 898.460938 485.15625 898.460938 489.988281 L 898.460938 505.894531 C 898.460938 510.726562 896.046875 513.132812 891.226562 513.132812 L 847.648438 513.132812 L 847.648438 528.082031 L 879.160156 528.082031 C 883.976562 528.082031 886.394531 530.484375 886.394531 535.316406 L 886.394531 548.984375 C 886.394531 553.804688 883.992188 556.207031 879.160156 556.207031 L 847.648438 556.207031 Z M 847.648438 556.230469 " fill-opacity="1" fill-rule="nonzero"/><g clip-path="url(#3711607089)"><path fill="#191919" d="M 967.359375 604.792969 C 950.15625 604.792969 934.554688 597.882812 923.140625 586.457031 C 911.726562 575.042969 904.804688 559.441406 904.804688 542.238281 C 904.804688 524.871094 911.714844 509.445312 923.140625 498.019531 C 934.554688 486.605469 950.15625 479.683594 967.359375 479.683594 C 984.082031 479.683594 999.675781 486.113281 1011.414062 497.691406 C 1014.789062 501.0625 1014.308594 504.761719 1010.460938 507.820312 L 997.75 517.789062 C 994.050781 520.84375 991.320312 520.367188 987.621094 517.296875 C 981.832031 512.476562 975.074219 510.074219 967.359375 510.074219 C 958.511719 510.074219 950.472656 513.761719 944.683594 519.550781 C 938.894531 525.339844 935.195312 533.378906 935.195312 542.226562 C 935.195312 551.058594 938.894531 559.101562 944.683594 564.902344 C 950.472656 570.691406 958.511719 574.226562 967.359375 574.226562 C 974.757812 574.226562 981.351562 571.972656 986.976562 567.46875 C 990.675781 564.738281 993.570312 564.097656 997.273438 567.15625 L 1009.652344 577.597656 C 1013.355469 580.644531 1013.832031 584.507812 1010.144531 587.894531 C 998.554688 598.851562 983.429688 604.792969 967.359375 604.792969 Z M 967.359375 604.792969 " fill-opacity="1" fill-rule="nonzero"/></g></svg>