<svg xmlns="http://www.w3.org/2000/svg" xmlns:xlink="http://www.w3.org/1999/xlink" width="500" zoomAndPan="magnify" viewBox="0 0 375 374.999991" height="500" preserveAspectRatio="xMidYMid meet" version="1.0"><defs><clipPath id="bc2dc3539a"><path d="M 0 0 L 368.25 0 L 368.25 368.25 L 0 368.25 Z M 0 0 " clip-rule="nonzero"/></clipPath></defs><g clip-path="url(#bc2dc3539a)"><path fill="#2197bd" d="M 368.25 312.257812 C 368.25 343.160156 343.199219 368.214844 312.292969 368.214844 L 55.96875 368.214844 C 25.066406 368.214844 0.015625 343.160156 0.015625 312.257812 L 0.015625 55.933594 C 0.015625 25.027344 25.066406 -0.0234375 55.96875 -0.0234375 L 312.292969 -0.0234375 C 343.199219 -0.0234375 368.25 25.027344 368.25 55.933594 Z M 368.25 312.257812 " fill-opacity="1" fill-rule="nonzero"/></g><path fill="#ffffff" d="M 145.621094 131.355469 C 145.621094 132.253906 145.578125 133.152344 145.488281 134.050781 C 145.402344 134.945312 145.269531 135.835938 145.09375 136.722656 C 144.917969 137.605469 144.699219 138.476562 144.4375 139.339844 C 144.175781 140.203125 143.875 141.046875 143.527344 141.882812 C 143.183594 142.714844 142.800781 143.527344 142.375 144.320312 C 141.949219 145.117188 141.488281 145.886719 140.984375 146.636719 C 140.484375 147.386719 139.949219 148.109375 139.378906 148.804688 C 138.804688 149.5 138.203125 150.167969 137.566406 150.804688 C 136.929688 151.441406 136.261719 152.046875 135.566406 152.617188 C 134.867188 153.191406 134.144531 153.726562 133.398438 154.226562 C 132.648438 154.726562 131.875 155.191406 131.082031 155.613281 C 130.285156 156.039062 129.472656 156.425781 128.640625 156.769531 C 127.808594 157.113281 126.960938 157.417969 126.097656 157.679688 C 125.238281 157.941406 124.363281 158.160156 123.480469 158.335938 C 122.597656 158.511719 121.707031 158.640625 120.808594 158.730469 C 119.914062 158.820312 119.015625 158.863281 118.113281 158.863281 C 117.214844 158.863281 116.3125 158.820312 115.417969 158.730469 C 114.519531 158.640625 113.632812 158.507812 112.746094 158.335938 C 111.863281 158.160156 110.992188 157.941406 110.128906 157.679688 C 109.265625 157.417969 108.417969 157.113281 107.585938 156.769531 C 106.753906 156.425781 105.941406 156.039062 105.148438 155.613281 C 104.351562 155.191406 103.582031 154.726562 102.832031 154.226562 C 102.082031 153.726562 101.359375 153.191406 100.664062 152.617188 C 99.964844 152.046875 99.300781 151.441406 98.664062 150.804688 C 98.027344 150.167969 97.421875 149.5 96.847656 148.804688 C 96.277344 148.109375 95.742188 147.386719 95.242188 146.636719 C 94.742188 145.886719 94.277344 145.117188 93.855469 144.320312 C 93.429688 143.527344 93.042969 142.714844 92.699219 141.882812 C 92.355469 141.046875 92.050781 140.203125 91.789062 139.339844 C 91.527344 138.476562 91.308594 137.605469 91.132812 136.722656 C 90.957031 135.835938 90.828125 134.945312 90.738281 134.050781 C 90.648438 133.152344 90.605469 132.253906 90.605469 131.355469 C 90.605469 130.453125 90.648438 129.554688 90.738281 128.65625 C 90.828125 127.761719 90.957031 126.871094 91.132812 125.988281 C 91.308594 125.105469 91.527344 124.230469 91.789062 123.367188 C 92.050781 122.507812 92.355469 121.660156 92.699219 120.828125 C 93.042969 119.996094 93.429688 119.179688 93.855469 118.386719 C 94.277344 117.59375 94.742188 116.820312 95.242188 116.070312 C 95.742188 115.320312 96.277344 114.597656 96.847656 113.902344 C 97.421875 113.207031 98.027344 112.539062 98.664062 111.902344 C 99.300781 111.265625 99.964844 110.660156 100.664062 110.089844 C 101.359375 109.519531 102.082031 108.980469 102.832031 108.480469 C 103.582031 107.980469 104.351562 107.519531 105.148438 107.09375 C 105.941406 106.667969 106.753906 106.285156 107.585938 105.941406 C 108.417969 105.59375 109.265625 105.292969 110.128906 105.03125 C 110.992188 104.769531 111.863281 104.550781 112.746094 104.375 C 113.632812 104.199219 114.519531 104.066406 115.417969 103.976562 C 116.3125 103.890625 117.214844 103.847656 118.113281 103.847656 C 119.015625 103.847656 119.914062 103.890625 120.808594 103.976562 C 121.707031 104.066406 122.597656 104.199219 123.480469 104.375 C 124.363281 104.550781 125.238281 104.769531 126.097656 105.03125 C 126.960938 105.292969 127.808594 105.59375 128.640625 105.941406 C 129.472656 106.285156 130.285156 106.667969 131.082031 107.09375 C 131.875 107.519531 132.648438 107.980469 133.398438 108.480469 C 134.144531 108.980469 134.867188 109.519531 135.566406 110.089844 C 136.261719 110.660156 136.929688 111.265625 137.566406 111.902344 C 138.203125 112.539062 138.804688 113.207031 139.378906 113.902344 C 139.949219 114.597656 140.484375 115.320312 140.984375 116.070312 C 141.488281 116.820312 141.949219 117.59375 142.375 118.386719 C 142.800781 119.179688 143.183594 119.996094 143.527344 120.828125 C 143.875 121.660156 144.175781 122.507812 144.4375 123.367188 C 144.699219 124.230469 144.917969 125.105469 145.09375 125.988281 C 145.269531 126.871094 145.402344 127.761719 145.488281 128.65625 C 145.578125 129.554688 145.621094 130.453125 145.621094 131.355469 Z M 145.621094 131.355469 " fill-opacity="1" fill-rule="nonzero"/><path fill="#ffffff" d="M 94.398438 179.144531 L 141.660156 179.144531 L 141.660156 331.171875 L 94.398438 331.171875 Z M 94.398438 179.144531 " fill-opacity="1" fill-rule="nonzero"/><path fill="#ffffff" d="M 171.378906 179.144531 L 216.363281 179.144531 L 216.363281 331.171875 L 171.378906 331.171875 Z M 171.378906 179.144531 " fill-opacity="1" fill-rule="nonzero"/><path fill="#ffffff" d="M 173.324219 260.089844 L 218.304688 260.089844 L 218.304688 331.171875 L 173.324219 331.171875 Z M 173.324219 260.089844 " fill-opacity="1" fill-rule="nonzero"/><path fill="#ffffff" d="M 218.304688 260.089844 C 218.304688 260.089844 217.601562 240.367188 222.800781 230.117188 C 222.800781 230.117188 228.003906 217.492188 244.351562 217.414062 C 244.351562 217.414062 263.519531 214.066406 269.019531 233.089844 C 269.019531 233.089844 271.101562 243.640625 271.101562 248.101562 C 271.101562 252.558594 271.25 331.175781 271.25 331.175781 L 318.359375 331.175781 L 318.359375 244.089844 C 318.359375 244.089844 321.777344 194.894531 292.25 181.421875 C 292.25 181.421875 243.703125 159.625 217.355469 199.652344 C 217.355469 199.652344 211.605469 203.613281 210.8125 192.515625 C 210.019531 181.421875 203.285156 209.558594 203.085938 210.15625 C 202.886719 210.75 210.8125 266.230469 210.8125 266.230469 Z M 218.304688 260.089844 " fill-opacity="1" fill-rule="nonzero"/></svg>