<svg xmlns="http://www.w3.org/2000/svg" xmlns:xlink="http://www.w3.org/1999/xlink" width="500" zoomAndPan="magnify" viewBox="0 0 375 374.999991" height="500" preserveAspectRatio="xMidYMid meet" version="1.0"><defs><clipPath id="38d567761e"><path d="M 142 5.796875 L 232 5.796875 L 232 207 L 142 207 Z M 142 5.796875 " clip-rule="nonzero"/></clipPath><clipPath id="409adac9c4"><path d="M 0 289 L 64 289 L 64 374.796875 L 0 374.796875 Z M 0 289 " clip-rule="nonzero"/></clipPath><clipPath id="aa0c4b7193"><path d="M 168 289 L 234 289 L 234 374.796875 L 168 374.796875 Z M 168 289 " clip-rule="nonzero"/></clipPath><clipPath id="e133cbf41a"><path d="M 67 316 L 89 316 L 89 374.796875 L 67 374.796875 Z M 67 316 " clip-rule="nonzero"/></clipPath><clipPath id="0ac4f8e5ed"><path d="M 96 288 L 165 288 L 165 374.796875 L 96 374.796875 Z M 96 288 " clip-rule="nonzero"/></clipPath><clipPath id="ad7439c378"><path d="M 312 288 L 375 288 L 375 374.796875 L 312 374.796875 Z M 312 288 " clip-rule="nonzero"/></clipPath><clipPath id="7ebb965ad6"><path d="M 225 304 L 264 304 L 264 374.796875 L 225 374.796875 Z M 225 304 " clip-rule="nonzero"/></clipPath><clipPath id="11b2e31b2c"><path d="M 268 304 L 307 304 L 307 374.796875 L 268 374.796875 Z M 268 304 " clip-rule="nonzero"/></clipPath><clipPath id="30a0429948"><path d="M 230 304 L 301 304 L 301 374.796875 L 230 374.796875 Z M 230 304 " clip-rule="nonzero"/></clipPath></defs><path fill="#25f4ee" d="M 168.078125 100.535156 L 168.078125 90.933594 C 164.871094 90.5 161.597656 90.214844 158.273438 90.214844 C 118.109375 90.214844 85.445312 122.855469 85.445312 162.996094 C 85.445312 187.625 97.761719 209.414062 116.539062 222.585938 C 104.425781 209.582031 97.226562 192.164062 97.226562 173.03125 C 97.226562 133.476562 128.734375 101.453125 168.097656 100.515625 Z M 168.078125 100.535156 " fill-opacity="1" fill-rule="nonzero"/><g clip-path="url(#38d567761e)"><path fill="#25f4ee" d="M 169.785156 206.523438 C 187.691406 206.523438 202.5625 192.046875 203.230469 174.300781 L 203.28125 16.082031 L 232 15.832031 C 231.398438 12.574219 231.0625 9.21875 231.0625 5.796875 L 191.503906 5.796875 L 191.4375 164.265625 C 190.765625 182.015625 176.148438 196.257812 158.238281 196.257812 C 152.675781 196.257812 147.429688 194.871094 142.820312 192.433594 C 148.867188 200.796875 158.691406 206.523438 169.785156 206.523438 Z M 169.785156 206.523438 " fill-opacity="1" fill-rule="nonzero"/></g><path fill="#25f4ee" d="M 286.128906 69.878906 L 286.128906 60.8125 C 275.085938 60.8125 264.777344 57.523438 256.15625 51.894531 C 263.84375 60.710938 274.285156 67.339844 286.128906 69.878906 Z M 286.128906 69.878906 " fill-opacity="1" fill-rule="nonzero"/><path fill="#fe2c55" d="M 256.15625 51.894531 C 247.738281 42.226562 242.625 29.621094 242.625 15.832031 L 232.035156 15.832031 C 234.824219 30.890625 243.777344 43.8125 256.175781 51.894531 Z M 256.15625 51.894531 " fill-opacity="1" fill-rule="nonzero"/><path fill="#fe2c55" d="M 158.253906 129.769531 C 139.910156 129.769531 124.992188 144.679688 124.992188 163.011719 C 124.992188 175.769531 132.242188 186.871094 142.820312 192.433594 C 138.875 186.972656 136.519531 180.277344 136.519531 173.046875 C 136.519531 154.714844 151.4375 139.804688 169.785156 139.804688 C 173.207031 139.804688 176.484375 140.371094 179.589844 141.339844 L 179.589844 100.96875 C 176.382812 100.535156 173.109375 100.25 169.785156 100.25 C 169.199219 100.25 168.628906 100.28125 168.0625 100.300781 L 168.0625 131.304688 C 164.957031 130.335938 161.679688 129.769531 158.253906 129.769531 Z M 158.253906 129.769531 " fill-opacity="1" fill-rule="nonzero"/><path fill="#fe2c55" d="M 286.128906 69.609375 L 286.128906 100.351562 C 265.613281 100.351562 246.601562 93.789062 231.082031 82.652344 L 231.082031 163.011719 C 231.082031 203.152344 198.417969 235.792969 158.253906 235.792969 C 142.734375 235.792969 128.351562 230.902344 116.523438 222.605469 C 129.820312 236.878906 148.78125 245.828125 169.785156 245.828125 C 209.945312 245.828125 242.609375 213.1875 242.609375 173.046875 L 242.609375 92.6875 C 258.128906 103.824219 277.140625 110.382812 297.65625 110.382812 L 297.65625 70.847656 C 293.699219 70.847656 289.839844 70.414062 286.128906 69.628906 Z M 286.128906 69.609375 " fill-opacity="1" fill-rule="nonzero"/><path fill="#000000" d="M 231.082031 163.011719 L 231.082031 82.652344 C 246.601562 93.789062 265.613281 100.351562 286.128906 100.351562 L 286.128906 69.609375 C 274.285156 67.074219 263.84375 60.710938 256.15625 51.894531 C 243.761719 43.8125 234.804688 30.890625 232.015625 15.832031 L 203.046875 15.832031 L 202.980469 174.300781 C 202.3125 192.046875 187.691406 206.292969 169.785156 206.292969 C 158.691406 206.292969 148.867188 200.816406 142.820312 192.433594 C 132.226562 186.871094 124.992188 175.769531 124.992188 163.011719 C 124.992188 144.679688 139.910156 129.769531 158.253906 129.769531 C 161.679688 129.769531 164.957031 130.335938 168.0625 131.304688 L 168.0625 100.300781 C 128.703125 101.21875 96.957031 133.476562 96.957031 173.03125 C 96.957031 192.164062 104.394531 209.582031 116.523438 222.585938 C 128.351562 230.886719 142.734375 235.777344 158.253906 235.777344 C 198.417969 235.777344 231.082031 203.136719 231.082031 162.996094 Z M 231.082031 163.011719 " fill-opacity="1" fill-rule="nonzero"/><g clip-path="url(#409adac9c4)"><path fill="#000000" d="M 0.0429688 289.105469 L 63.84375 289.105469 L 57.980469 307.355469 L 41.425781 307.355469 C 41.425781 307.355469 41.425781 374.796875 41.425781 374.796875 L 20.792969 374.796875 L 20.792969 307.339844 L 0.0429688 307.375 L 0.0429688 289.089844 Z M 0.0429688 289.105469 " fill-opacity="1" fill-rule="nonzero"/></g><g clip-path="url(#aa0c4b7193)"><path fill="#000000" d="M 168.363281 289.105469 L 233.636719 289.105469 L 227.773438 307.355469 L 209.78125 307.355469 C 209.78125 307.355469 209.78125 374.796875 209.78125 374.796875 L 189.128906 374.796875 L 189.128906 307.339844 L 168.378906 307.375 L 168.378906 289.089844 Z M 168.363281 289.105469 " fill-opacity="1" fill-rule="nonzero"/></g><g clip-path="url(#e133cbf41a)"><path fill="#000000" d="M 67.738281 316.355469 L 88.1875 316.355469 L 88.171875 374.796875 L 67.855469 374.796875 Z M 67.738281 316.355469 " fill-opacity="1" fill-rule="nonzero"/></g><g clip-path="url(#0ac4f8e5ed)"><path fill="#000000" d="M 96.304688 288.875 L 116.738281 288.875 L 116.738281 328.777344 L 136.988281 308.925781 L 161.378906 308.925781 C 161.378906 308.925781 135.769531 333.769531 135.769531 333.769531 L 164.453125 374.8125 L 141.933594 374.8125 L 122.785156 346.359375 L 116.722656 352.238281 L 116.722656 374.8125 L 96.289062 374.8125 L 96.289062 288.890625 Z M 96.304688 288.875 " fill-opacity="1" fill-rule="nonzero"/></g><g clip-path="url(#ad7439c378)"><path fill="#000000" d="M 312.8125 288.875 L 333.242188 288.875 L 333.242188 328.777344 L 353.492188 308.925781 L 377.882812 308.925781 C 377.882812 308.925781 352.273438 333.769531 352.273438 333.769531 L 380.957031 374.8125 L 358.4375 374.8125 L 339.292969 346.359375 L 333.226562 352.238281 L 333.226562 374.8125 L 312.792969 374.8125 L 312.792969 288.890625 Z M 312.8125 288.875 " fill-opacity="1" fill-rule="nonzero"/></g><path fill="#000000" d="M 88.253906 299.390625 C 88.253906 300.066406 88.1875 300.738281 88.054688 301.398438 C 87.925781 302.0625 87.730469 302.703125 87.46875 303.328125 C 87.210938 303.953125 86.894531 304.546875 86.519531 305.105469 C 86.144531 305.667969 85.71875 306.1875 85.238281 306.664062 C 84.761719 307.144531 84.242188 307.570312 83.679688 307.945312 C 83.117188 308.320312 82.523438 308.636719 81.902344 308.894531 C 81.277344 309.152344 80.632812 309.347656 79.96875 309.480469 C 79.308594 309.613281 78.636719 309.679688 77.960938 309.679688 C 77.285156 309.679688 76.617188 309.613281 75.953125 309.480469 C 75.292969 309.347656 74.648438 309.152344 74.023438 308.894531 C 73.398438 308.636719 72.808594 308.320312 72.246094 307.945312 C 71.683594 307.570312 71.164062 307.144531 70.683594 306.664062 C 70.207031 306.1875 69.78125 305.667969 69.40625 305.105469 C 69.03125 304.546875 68.714844 303.953125 68.453125 303.328125 C 68.195312 302.703125 68 302.0625 67.867188 301.398438 C 67.738281 300.738281 67.671875 300.066406 67.671875 299.390625 C 67.671875 298.71875 67.738281 298.046875 67.867188 297.386719 C 68 296.722656 68.195312 296.082031 68.453125 295.457031 C 68.714844 294.832031 69.03125 294.238281 69.40625 293.679688 C 69.78125 293.117188 70.207031 292.597656 70.683594 292.121094 C 71.164062 291.640625 71.683594 291.214844 72.246094 290.839844 C 72.808594 290.464844 73.398438 290.148438 74.023438 289.890625 C 74.648438 289.632812 75.292969 289.4375 75.953125 289.304688 C 76.617188 289.171875 77.285156 289.105469 77.960938 289.105469 C 78.636719 289.105469 79.308594 289.171875 79.96875 289.304688 C 80.632812 289.4375 81.277344 289.632812 81.902344 289.890625 C 82.523438 290.148438 83.117188 290.464844 83.679688 290.839844 C 84.242188 291.214844 84.761719 291.640625 85.238281 292.121094 C 85.71875 292.597656 86.144531 293.117188 86.519531 293.679688 C 86.894531 294.238281 87.210938 294.832031 87.46875 295.457031 C 87.730469 296.082031 87.925781 296.722656 88.054688 297.386719 C 88.1875 298.046875 88.253906 298.71875 88.253906 299.390625 Z M 88.253906 299.390625 " fill-opacity="1" fill-rule="nonzero"/><g clip-path="url(#7ebb965ad6)"><path fill="#25f4ee" d="M 231.179688 339.816406 C 231.179688 321.414062 245.398438 306.355469 263.441406 304.953125 C 262.539062 304.886719 261.152344 304.835938 260.234375 304.835938 C 240.90625 304.835938 225.234375 320.496094 225.234375 339.816406 C 225.234375 359.132812 240.90625 374.796875 260.234375 374.796875 C 261.152344 374.796875 262.539062 374.746094 263.441406 374.679688 C 245.398438 373.277344 231.179688 358.214844 231.179688 339.816406 Z M 231.179688 339.816406 " fill-opacity="1" fill-rule="nonzero"/></g><g clip-path="url(#11b2e31b2c)"><path fill="#fe2c55" d="M 271.246094 304.835938 C 270.308594 304.835938 268.921875 304.886719 268.003906 304.953125 C 286.046875 306.355469 300.230469 321.433594 300.230469 339.816406 C 300.230469 358.199219 286.03125 373.257812 268.003906 374.679688 C 268.921875 374.746094 270.308594 374.796875 271.246094 374.796875 C 290.574219 374.796875 306.246094 359.132812 306.246094 339.816406 C 306.246094 320.496094 290.574219 304.835938 271.246094 304.835938 Z M 271.246094 304.835938 " fill-opacity="1" fill-rule="nonzero"/></g><g clip-path="url(#30a0429948)"><path fill="#000000" d="M 265.699219 304.835938 C 246.367188 304.835938 230.695312 320.496094 230.695312 339.816406 C 230.695312 359.132812 246.367188 374.796875 265.699219 374.796875 C 285.027344 374.796875 300.699219 359.132812 300.699219 339.816406 C 300.699219 320.496094 285.027344 304.835938 265.699219 304.835938 Z M 265.699219 356.828125 C 256.308594 356.828125 248.691406 349.214844 248.691406 339.832031 C 248.691406 330.449219 256.308594 322.835938 265.699219 322.835938 C 275.085938 322.835938 282.707031 330.449219 282.707031 339.832031 C 282.707031 349.214844 275.085938 356.828125 265.699219 356.828125 Z M 265.699219 356.828125 " fill-opacity="1" fill-rule="nonzero"/></g></svg>