<svg xmlns="http://www.w3.org/2000/svg" xmlns:xlink="http://www.w3.org/1999/xlink" width="500" zoomAndPan="magnify" viewBox="0 0 375 374.999991" height="500" preserveAspectRatio="xMidYMid meet" version="1.0"><defs><clipPath id="d781cbc792"><path d="M 12.101562 12.101562 L 363.101562 12.101562 L 363.101562 363.101562 L 12.101562 363.101562 Z M 12.101562 12.101562 " clip-rule="nonzero"/></clipPath></defs><g clip-path="url(#d781cbc792)"><path fill="#cb2029" d="M 363.113281 309.71875 C 363.113281 339.175781 339.234375 363.054688 309.777344 363.054688 L 65.460938 363.054688 C 36.007812 363.054688 12.125 339.175781 12.125 309.71875 L 12.125 65.402344 C 12.125 35.945312 36.007812 12.066406 65.460938 12.066406 L 309.777344 12.066406 C 339.234375 12.066406 363.113281 35.945312 363.113281 65.402344 Z M 363.113281 309.71875 " fill-opacity="1" fill-rule="nonzero"/></g><path fill="#ffffff" d="M 312.015625 190.285156 C 312.015625 209.683594 312 230.265625 307.648438 249.101562 C 304.609375 262.324219 293.789062 272.082031 280.757812 273.550781 C 249.914062 276.992188 218.679688 277.003906 187.601562 276.992188 C 156.515625 277.003906 125.292969 276.992188 94.441406 273.550781 C 81.40625 272.082031 70.589844 262.324219 67.554688 249.101562 C 63.226562 230.265625 63.226562 209.683594 63.226562 190.285156 C 63.226562 170.875 63.265625 150.332031 67.609375 131.46875 C 70.640625 118.246094 81.460938 108.484375 94.492188 107.039062 C 125.34375 103.582031 156.566406 103.578125 187.652344 103.582031 C 218.730469 103.578125 249.960938 103.582031 280.8125 107.039062 C 293.851562 108.484375 304.667969 118.246094 307.703125 131.46875 C 312.03125 150.332031 312.015625 170.875 312.015625 190.285156 Z M 312.015625 190.285156 " fill-opacity="1" fill-rule="nonzero"/><path fill="#cb2029" d="M 161.40625 143.976562 L 161.40625 237.003906 L 233.695312 190.492188 Z M 161.40625 143.976562 " fill-opacity="1" fill-rule="nonzero"/></svg>