<svg xmlns="http://www.w3.org/2000/svg" xmlns:xlink="http://www.w3.org/1999/xlink" width="500" zoomAndPan="magnify" viewBox="0 0 375 374.999991" height="500" preserveAspectRatio="xMidYMid meet" version="1.0"><defs><clipPath id="b07b406276"><path d="M 2.96875 0 L 370 0 L 370 375 L 2.96875 375 Z M 2.96875 0 " clip-rule="nonzero"/></clipPath></defs><g clip-path="url(#b07b406276)"><path fill="#73da8c" d="M 187.382812 0.589844 C 289.292969 1.140625 371.945312 84.394531 369.757812 185.625 C 367.636719 284.480469 284.757812 363.757812 184.628906 362.835938 C 155.617188 362.570312 128.214844 355.644531 103.914062 343.542969 L 15.167969 374.929688 L 45.4375 297.648438 C 18.902344 266.234375 2.933594 225.820312 2.933594 181.714844 C 2.933594 81.453125 85.84375 0.0429688 187.382812 0.589844 Z M 187.382812 0.589844 " fill-opacity="1" fill-rule="nonzero"/></g><path fill="#ffffff" d="M 112.308594 326.773438 L 106.945312 324.101562 L 57.582031 341.558594 C 55.144531 342.421875 52.429688 341.78125 50.632812 339.921875 C 48.835938 338.066406 48.289062 335.328125 49.230469 332.921875 L 65.253906 292.011719 L 59.816406 285.574219 C 35.257812 256.5 21.734375 219.613281 21.734375 181.714844 C 21.734375 92.175781 95.589844 19.328125 186.371094 19.328125 L 187.265625 19.328125 C 279.429688 19.828125 352.910156 95.027344 350.964844 185.21875 C 349.042969 274.554688 274.253906 344.070312 186.367188 344.101562 C 160.871094 344.109375 135.445312 338.292969 112.308594 326.773438 Z M 110.328125 311.027344 C 115.460938 313 142.664062 330.886719 186.359375 330.886719 C 268.472656 330.882812 336.019531 265.800781 337.757812 184.9375 C 339.550781 101.855469 271.71875 33 187.210938 32.542969 L 186.351562 32.539062 C 102.871094 32.539062 34.941406 99.460938 34.941406 181.714844 C 34.941406 216.5 47.359375 250.355469 69.910156 277.050781 L 77.886719 286.496094 C 79.449219 288.347656 79.875 290.910156 78.988281 293.167969 L 66.800781 324.285156 L 105.179688 310.714844 C 106.847656 310.125 108.707031 310.222656 110.328125 311.027344 Z M 110.328125 311.027344 " fill-opacity="1" fill-rule="nonzero"/><path fill="#ffffff" d="M 284.816406 246.515625 L 258.132812 273.203125 C 246.882812 284.457031 230.460938 288.851562 215.027344 284.65625 C 153.890625 267.984375 106.152344 220.230469 89.488281 159.09375 C 85.289062 143.714844 89.660156 127.257812 100.933594 115.980469 L 127.617188 89.292969 L 166.914062 128.605469 L 144.457031 162.296875 C 159.035156 191.457031 182.671875 215.09375 211.828125 229.675781 L 245.511719 207.214844 Z M 284.816406 246.515625 " fill-opacity="1" fill-rule="nonzero"/></svg>