<svg xmlns="http://www.w3.org/2000/svg" xmlns:xlink="http://www.w3.org/1999/xlink" width="500" zoomAndPan="magnify" viewBox="0 0 375 374.999991" height="500" preserveAspectRatio="xMidYMid meet" version="1.0"><defs><clipPath id="ab3a31bc3f"><path d="M 3.535156 3.535156 L 371.785156 3.535156 L 371.785156 371 L 3.535156 371 Z M 3.535156 3.535156 " clip-rule="nonzero"/></clipPath><clipPath id="e180945f08"><path d="M 105 71 L 274 71 L 274 371.785156 L 105 371.785156 Z M 105 71 " clip-rule="nonzero"/></clipPath></defs><g clip-path="url(#ab3a31bc3f)"><path fill="#0866ff" d="M 371.832031 187.691406 C 371.832031 85.976562 289.390625 3.535156 187.691406 3.535156 C 85.992188 3.535156 3.535156 85.976562 3.535156 187.691406 C 3.535156 274.050781 62.988281 346.527344 143.199219 366.429688 L 143.199219 243.972656 L 105.214844 243.972656 L 105.214844 187.691406 L 143.199219 187.691406 L 143.199219 163.445312 C 143.199219 100.769531 171.5625 71.714844 233.09375 71.714844 C 244.765625 71.714844 264.894531 73.996094 273.128906 76.292969 L 273.128906 127.296875 C 268.78125 126.835938 261.226562 126.605469 251.855469 126.605469 C 221.65625 126.605469 209.988281 138.042969 209.988281 167.777344 L 209.988281 187.675781 L 270.136719 187.675781 L 259.804688 243.953125 L 209.988281 243.953125 L 209.988281 370.480469 C 301.175781 359.472656 371.832031 281.820312 371.832031 187.675781 Z M 371.832031 187.691406 " fill-opacity="1" fill-rule="nonzero"/></g><g clip-path="url(#e180945f08)"><path fill="#ffffff" d="M 259.820312 243.953125 L 270.152344 187.675781 L 210.003906 187.675781 L 210.003906 167.777344 C 210.003906 138.042969 221.675781 126.605469 251.871094 126.605469 C 261.242188 126.605469 268.796875 126.835938 273.144531 127.296875 L 273.144531 76.292969 C 264.914062 74.011719 244.78125 71.714844 233.113281 71.714844 C 171.578125 71.714844 143.214844 100.769531 143.214844 163.445312 L 143.214844 187.691406 L 105.234375 187.691406 L 105.234375 243.972656 L 143.214844 243.972656 L 143.214844 366.429688 C 157.460938 369.964844 172.355469 371.851562 187.707031 371.851562 C 195.261719 371.851562 202.699219 371.386719 210.023438 370.496094 L 210.023438 243.972656 L 259.839844 243.972656 Z M 259.820312 243.953125 " fill-opacity="1" fill-rule="nonzero"/></g></svg>