<svg xmlns="http://www.w3.org/2000/svg" xmlns:xlink="http://www.w3.org/1999/xlink" width="500" zoomAndPan="magnify" viewBox="0 0 375 374.999991" height="500" preserveAspectRatio="xMidYMid meet" version="1.0"><defs><clipPath id="ef5a7fb335"><path d="M 0 0 L 367.5 0 L 367.5 367.5 L 0 367.5 Z M 0 0 " clip-rule="nonzero"/></clipPath></defs><rect x="-37.5" width="450" fill="#ffffff" y="-37.499999" height="449.999989" fill-opacity="1"/><rect x="-37.5" width="450" fill="#ffffff" y="-37.499999" height="449.999989" fill-opacity="1"/><g clip-path="url(#ef5a7fb335)"><path fill="#fffc00" d="M 308.949219 0.015625 C 341.28125 0.015625 367.507812 26.230469 367.507812 58.578125 L 367.507812 308.96875 C 367.507812 341.296875 341.28125 367.527344 308.949219 367.527344 L 58.554688 367.527344 C 26.210938 367.527344 -0.00390625 341.296875 -0.00390625 308.96875 L -0.00390625 58.578125 C -0.00390625 26.230469 26.210938 0.015625 58.554688 0.015625 Z M 308.949219 0.015625 " fill-opacity="1" fill-rule="nonzero"/></g><path fill="#ffffff" d="M 307.664062 246.757812 C 306.574219 243.183594 301.398438 240.65625 301.398438 240.65625 C 300.902344 240.386719 300.472656 240.164062 300.097656 239.984375 C 291.46875 235.8125 283.8125 230.773438 277.351562 225.074219 C 272.175781 220.484375 267.734375 215.429688 264.175781 210.074219 C 259.828125 203.527344 257.789062 198.050781 256.910156 195.09375 C 256.414062 193.148438 256.488281 192.386719 256.910156 191.367188 C 257.238281 190.515625 258.253906 189.726562 258.71875 189.335938 C 261.632812 187.269531 266.316406 184.234375 269.21875 182.367188 C 271.714844 180.75 273.855469 179.363281 275.109375 178.476562 C 279.160156 175.636719 281.941406 172.75 283.574219 169.640625 C 285.683594 165.617188 285.949219 161.175781 284.289062 156.808594 C 282.078125 150.933594 276.585938 147.433594 269.589844 147.433594 C 268.050781 147.433594 266.449219 147.613281 264.847656 147.945312 C 260.855469 148.824219 257.058594 150.246094 253.890625 151.484375 C 253.664062 151.578125 253.394531 151.398438 253.425781 151.140625 C 253.769531 143.277344 254.140625 132.703125 253.277344 122.667969 C 252.5 113.59375 250.613281 105.9375 247.578125 99.25 C 244.5 92.550781 240.503906 87.601562 237.394531 84.011719 C 234.417969 80.621094 229.183594 75.578125 221.289062 71.074219 C 210.207031 64.722656 197.570312 61.503906 183.75 61.503906 C 169.949219 61.503906 157.34375 64.722656 146.234375 71.074219 C 137.875 75.847656 132.535156 81.230469 130.113281 84.011719 C 126.984375 87.601562 122.992188 92.550781 119.929688 99.25 C 116.847656 105.9375 114.996094 113.578125 114.214844 122.667969 C 113.351562 132.765625 113.710938 142.484375 114.066406 151.140625 C 114.066406 151.398438 113.84375 151.578125 113.570312 151.484375 C 110.402344 150.246094 106.621094 148.824219 102.613281 147.945312 C 101.042969 147.613281 99.441406 147.433594 97.871094 147.433594 C 90.917969 147.433594 85.414062 150.933594 83.171875 156.808594 C 81.523438 161.175781 81.78125 165.617188 83.890625 169.640625 C 85.550781 172.75 88.300781 175.636719 92.355469 178.476562 C 93.597656 179.363281 95.761719 180.75 98.257812 182.367188 C 101.074219 184.203125 105.632812 187.167969 108.578125 189.199219 C 108.941406 189.46875 110.179688 190.394531 110.566406 191.367188 C 110.972656 192.402344 111.046875 193.179688 110.507812 195.242188 C 109.609375 198.230469 107.578125 203.644531 103.285156 210.074219 C 99.726562 215.457031 95.300781 220.484375 90.113281 225.074219 C 83.664062 230.773438 76.007812 235.8125 67.363281 239.984375 C 66.960938 240.191406 66.46875 240.417969 65.945312 240.734375 C 65.945312 240.734375 60.785156 243.363281 59.816406 246.757812 C 58.363281 251.796875 62.203125 256.507812 66.109375 259.035156 C 72.496094 263.164062 80.285156 265.390625 84.800781 266.605469 C 86.058594 266.933594 87.195312 267.246094 88.226562 267.546875 C 88.867188 267.753906 90.5 268.378906 91.203125 269.28125 C 92.070312 270.417969 92.175781 271.808594 92.488281 273.375 C 92.96875 276.039062 94.089844 279.3125 97.363281 281.574219 C 100.96875 284.054688 105.527344 284.234375 111.332031 284.472656 C 117.398438 284.695312 124.921875 284.980469 133.566406 287.851562 C 137.558594 289.152344 141.191406 291.394531 145.378906 293.984375 C 154.144531 299.367188 165.046875 306.082031 183.664062 306.082031 C 202.3125 306.082031 213.300781 299.351562 222.125 293.921875 C 226.296875 291.378906 229.886719 289.152344 233.804688 287.867188 C 242.449219 285.011719 249.96875 284.726562 256.023438 284.488281 C 261.828125 284.265625 266.402344 284.097656 270.011719 281.601562 C 273.507812 279.179688 274.523438 275.574219 274.992188 272.867188 C 275.242188 271.523438 275.390625 270.308594 276.167969 269.324219 C 276.84375 268.472656 278.339844 267.890625 279.039062 267.648438 C 280.089844 267.320312 281.285156 267.007812 282.601562 266.644531 C 287.101562 265.4375 292.785156 264.015625 299.664062 260.125 C 307.964844 255.402344 308.53125 249.628906 307.664062 246.757812 Z M 307.664062 246.757812 " fill-opacity="1" fill-rule="nonzero"/><path fill="#000000" d="M 314.828125 243.976562 C 313 238.984375 309.488281 236.320312 305.523438 234.105469 C 304.777344 233.660156 304.074219 233.296875 303.507812 233.046875 C 302.324219 232.433594 301.113281 231.835938 299.902344 231.21875 C 287.488281 224.644531 277.800781 216.34375 271.085938 206.515625 C 268.828125 203.179688 267.242188 200.191406 266.136719 197.738281 C 265.570312 196.09375 265.597656 195.164062 266.015625 194.316406 C 266.316406 193.671875 267.152344 193 267.617188 192.667969 C 269.753906 191.25 271.9375 189.828125 273.433594 188.871094 C 276.097656 187.136719 278.203125 185.773438 279.550781 184.847656 C 284.648438 181.289062 288.210938 177.503906 290.4375 173.273438 C 293.578125 167.308594 293.96875 160.503906 291.542969 154.101562 C 288.195312 145.234375 279.789062 139.714844 269.621094 139.714844 C 267.511719 139.714844 265.375 139.957031 263.25 140.421875 C 262.683594 140.539062 262.144531 140.671875 261.601562 140.808594 C 261.710938 134.765625 261.546875 128.324219 261.007812 122.027344 C 259.105469 99.847656 251.332031 88.214844 243.242188 78.957031 C 239.863281 75.097656 233.984375 69.449219 225.160156 64.390625 C 212.871094 57.320312 198.929688 53.777344 183.75 53.777344 C 168.601562 53.777344 154.683594 57.320312 142.390625 64.363281 C 133.507812 69.417969 127.628906 75.097656 124.28125 78.941406 C 116.191406 88.199219 108.414062 99.816406 106.515625 121.996094 C 105.976562 128.292969 105.84375 134.734375 105.914062 140.777344 C 105.378906 140.644531 104.808594 140.523438 104.273438 140.390625 C 102.148438 139.925781 99.996094 139.6875 97.902344 139.6875 C 87.730469 139.6875 79.328125 145.207031 75.976562 154.085938 C 73.554688 160.472656 73.945312 167.292969 77.085938 173.246094 C 79.3125 177.476562 82.886719 181.261719 87.972656 184.816406 C 89.332031 185.773438 91.425781 187.136719 94.089844 188.839844 C 95.523438 189.765625 97.617188 191.144531 99.683594 192.503906 C 99.996094 192.714844 101.101562 193.539062 101.488281 194.316406 C 101.925781 195.195312 101.925781 196.136719 101.28125 197.902344 C 100.1875 200.296875 98.617188 203.242188 96.40625 206.484375 C 89.824219 216.101562 80.417969 224.253906 68.429688 230.757812 C 62.054688 234.121094 55.445312 236.363281 52.664062 243.949219 C 50.558594 249.675781 51.949219 256.210938 57.285156 261.695312 C 59.035156 263.582031 61.246094 265.257812 64.046875 266.796875 C 70.59375 270.417969 76.15625 272.199219 80.542969 273.40625 C 81.320312 273.632812 83.097656 274.199219 83.875 274.902344 C 85.832031 276.609375 85.550781 279.179688 88.152344 282.945312 C 89.722656 285.292969 91.53125 286.894531 93.027344 287.925781 C 98.46875 291.679688 104.601562 291.921875 111.105469 292.171875 C 116.953125 292.414062 123.609375 292.667969 131.1875 295.167969 C 134.34375 296.195312 137.621094 298.214844 141.371094 300.535156 C 150.449219 306.128906 162.90625 313.769531 183.726562 313.769531 C 204.554688 313.769531 217.074219 306.082031 226.222656 300.488281 C 229.992188 298.1875 233.234375 296.179688 236.273438 295.167969 C 243.855469 292.667969 250.507812 292.414062 256.371094 292.171875 C 262.863281 291.921875 268.976562 291.679688 274.449219 287.925781 C 276.140625 286.730469 278.308594 284.804688 280.011719 281.855469 C 281.867188 278.6875 281.855469 276.441406 283.605469 274.929688 C 284.320312 274.304688 285.890625 273.765625 286.742188 273.511719 C 291.152344 272.300781 296.808594 270.519531 303.476562 266.828125 C 306.453125 265.195312 308.742188 263.417969 310.578125 261.382812 C 310.59375 261.355469 310.625 261.339844 310.65625 261.308594 C 315.636719 255.898438 316.890625 249.570312 314.828125 243.976562 Z M 296.34375 253.90625 C 285.039062 260.140625 277.542969 259.484375 271.714844 263.222656 C 266.761719 266.410156 269.679688 273.304688 266.089844 275.769531 C 261.648438 278.851562 248.578125 275.574219 231.679688 281.136719 C 217.757812 285.761719 208.859375 298.980469 183.765625 298.980469 C 158.628906 298.980469 149.984375 285.804688 135.855469 281.136719 C 118.972656 275.574219 105.875 278.851562 101.460938 275.769531 C 97.871094 273.304688 100.789062 266.410156 95.839844 263.222656 C 90.003906 259.453125 82.496094 260.125 71.207031 253.90625 C 64.015625 249.945312 68.085938 247.488281 70.492188 246.324219 C 111.390625 226.542969 117.878906 195.957031 118.195312 193.671875 C 118.550781 190.933594 118.941406 188.769531 115.921875 185.953125 C 113.003906 183.246094 100.039062 175.230469 96.453125 172.71875 C 90.5 168.578125 87.894531 164.421875 89.824219 159.320312 C 91.171875 155.792969 94.476562 154.476562 97.945312 154.476562 C 99.039062 154.476562 100.144531 154.597656 101.207031 154.835938 C 107.726562 156.253906 114.066406 159.53125 117.730469 160.398438 C 118.238281 160.535156 118.6875 160.578125 119.078125 160.578125 C 121.035156 160.578125 121.707031 159.605469 121.574219 157.359375 C 121.15625 150.214844 120.121094 136.292969 121.257812 123.265625 C 122.816406 105.367188 128.585938 96.5 135.449219 88.632812 C 138.742188 84.863281 154.21875 68.519531 183.796875 68.519531 C 213.453125 68.519531 228.855469 84.863281 232.144531 88.632812 C 239.007812 96.46875 244.78125 105.339844 246.335938 123.265625 C 247.472656 136.292969 246.484375 150.214844 246.023438 157.359375 C 245.871094 159.710938 246.59375 160.578125 248.519531 160.578125 C 248.910156 160.578125 249.371094 160.535156 249.867188 160.398438 C 253.53125 159.53125 259.867188 156.253906 266.402344 154.835938 C 267.453125 154.597656 268.558594 154.476562 269.648438 154.476562 C 273.132812 154.476562 276.425781 155.808594 277.769531 159.320312 C 279.699219 164.421875 277.070312 168.578125 271.148438 172.71875 C 267.554688 175.230469 254.589844 183.246094 251.675781 185.953125 C 248.65625 188.738281 249.042969 190.902344 249.402344 193.671875 C 249.6875 195.957031 256.207031 226.542969 297.105469 246.324219 C 299.4375 247.488281 303.539062 249.945312 296.34375 253.90625 Z M 296.34375 253.90625 " fill-opacity="1" fill-rule="nonzero"/></svg>